PathFileType	4	(X/Y/Z)	 control3min.trc
DataRate	CameraRate	NumFrames	NumMarkers	Units	OrigDataRate	OrigDataStartFrame	OrigNumFrames
200	200	9	43	m	200	501	1000
Frame#	Time	C7			LSH			RSH			MAN			RASI			LASI			HIPR			HIPL			RPSI			LPSI			COX			RTHI1			RTHI2			RTHI3			RTHI4			RLKN			RMKN			RSHA1			RSHA2			RSHA3			RSHA4			RLMAL			RMMAL			RHEEL			RMET5			RMET1			RTOE			LTHI1			LTHI2			LTHI3			LTHI4			LLKN			LMKN			LSHA1			LSHA2			LSHA3			LSHA4			LLMAL			LMMAL			LHEEL			LMET5			LMET1			LTOE			
		X1	Y1	Z1	X2	Y2	Z2	X3	Y3	Z3	X4	Y4	Z4	X5	Y5	Z5	X6	Y6	Z6	X7	Y7	Z7	X8	Y8	Z8	X9	Y9	Z9	X10	Y10	Z10	X11	Y11	Z11	X12	Y12	Z12	X13	Y13	Z13	X14	Y14	Z14	X15	Y15	Z15	X16	Y16	Z16	X17	Y17	Z17	X18	Y18	Z18	X19	Y19	Z19	X20	Y20	Z20	X21	Y21	Z21	X22	Y22	Z22	X23	Y23	Z23	X24	Y24	Z24	X25	Y25	Z25	X26	Y26	Z26	X27	Y27	Z27	X28	Y28	Z28	X29	Y29	Z29	X30	Y30	Z30	X31	Y31	Z31	X32	Y32	Z32	X33	Y33	Z33	X34	Y34	Z34	X35	Y35	Z35	X36	Y36	Z36	X37	Y37	Z37	X38	Y38	Z38	X39	Y39	Z39	X40	Y40	Z40	X41	Y41	Z41	X42	Y42	Z42	X43	Y43	Z43	
501	2.5050	-0.260611	1.460412	-0.538005	-0.205619	1.465895	-0.711354	-0.216760	1.456365	-0.355382	-0.137541	1.401406	-0.528122	-0.145523	0.976476	-0.420911	-0.124991	0.972487	-0.638671	-0.200765	1.023249	-0.393572	-0.197222	1.017528	-0.675760	-0.292154	1.003721	-0.486517	-0.283204	1.001806	-0.588615	-0.290973	0.997442	-0.534944	-0.222130	0.774838	-0.349310	-0.207704	0.717308	-0.342652	-0.144422	0.730266	-0.350873	-0.152121	0.790725	-0.360233	-0.183801	0.456178	-0.360132	-0.183497	0.450481	-0.460065	-0.309466	0.274651	-0.366697	-0.328782	0.238761	-0.379221	-0.271392	0.217790	-0.384129	-0.256204	0.254009	-0.375175	-0.348852	0.119748	-0.394688	-0.319666	0.134283	-0.470619	-0.393432	0.127916	-0.444032	-0.262902	0.038260	-0.362039	-0.212589	0.044803	-0.429683	-0.190589	0.036793	-0.425076	-0.222075	0.762487	-0.719568	-0.202139	0.704892	-0.729986	-0.139362	0.721080	-0.731635	-0.150258	0.780107	-0.722020	-0.145622	0.465641	-0.729886	-0.153155	0.459435	-0.628251	-0.276823	0.265666	-0.754694	-0.294519	0.230029	-0.747520	-0.238230	0.211214	-0.729672	-0.226583	0.252835	-0.739499	-0.305954	0.127478	-0.746762	-0.304409	0.141153	-0.667336	-0.370161	0.122045	-0.714496	-0.222759	0.040116	-0.742216	-0.195826	0.046498	-0.659597	-0.172455	0.038038	-0.654695	
502	2.5100	-0.261071	1.465164	-0.537834	-0.206032	1.471172	-0.711014	-0.217116	1.461780	-0.355532	-0.137974	1.406900	-0.528026	-0.144588	0.981357	-0.420908	-0.124081	0.977533	-0.638514	-0.199712	1.028512	-0.393689	-0.195974	1.022865	-0.675487	-0.291021	1.008955	-0.486530	-0.282024	1.007055	-0.588689	-0.289850	1.002734	-0.534514	-0.222214	0.779694	-0.349443	-0.208213	0.722041	-0.342776	-0.144853	0.734514	-0.351110	-0.152095	0.795033	-0.360472	-0.186123	0.460967	-0.360353	-0.185470	0.454921	-0.460364	-0.309791	0.278275	-0.366657	-0.328480	0.242015	-0.379075	-0.270950	0.221695	-0.383424	-0.256195	0.258154	-0.374608	-0.347435	0.122496	-0.393932	-0.317869	0.136916	-0.469621	-0.391646	0.130896	-0.443521	-0.262285	0.038702	-0.361979	-0.212452	0.044741	-0.429576	-0.190619	0.036834	-0.425081	-0.222198	0.767752	-0.719595	-0.202682	0.710010	-0.729994	-0.139780	0.725723	-0.731471	-0.150244	0.784820	-0.721839	-0.147944	0.470282	-0.729831	-0.155447	0.463981	-0.628125	-0.276874	0.269075	-0.754847	-0.294032	0.233172	-0.747844	-0.237423	0.214999	-0.730394	-0.226392	0.256823	-0.739995	-0.304291	0.130289	-0.747464	-0.302475	0.143658	-0.668232	-0.368137	0.125100	-0.715017	-0.222055	0.040418	-0.742373	-0.195574	0.046648	-0.659910	-0.172434	0.038161	-0.654868	
503	2.5150	-0.261580	1.469930	-0.537628	-0.206488	1.476555	-0.710628	-0.217550	1.467221	-0.355695	-0.138453	1.412468	-0.527915	-0.143624	0.986264	-0.420920	-0.123171	0.982585	-0.638342	-0.198642	1.033926	-0.393791	-0.194712	1.028266	-0.675214	-0.289850	1.014329	-0.486539	-0.280808	1.012430	-0.588765	-0.288715	1.008150	-0.533938	-0.222306	0.784608	-0.349561	-0.208740	0.726838	-0.342874	-0.145294	0.738810	-0.351307	-0.152077	0.799387	-0.360688	-0.188514	0.465847	-0.360566	-0.187400	0.459434	-0.460666	-0.310061	0.281987	-0.366631	-0.328129	0.245363	-0.378955	-0.270440	0.225718	-0.382664	-0.256145	0.262410	-0.374016	-0.345936	0.125307	-0.393208	-0.315869	0.139610	-0.468608	-0.389702	0.133949	-0.443051	-0.261668	0.039146	-0.361894	-0.212315	0.044687	-0.429452	-0.190667	0.036924	-0.425028	-0.222285	0.773129	-0.719615	-0.203202	0.715233	-0.729986	-0.140165	0.730456	-0.731281	-0.150191	0.789614	-0.721626	-0.150318	0.474987	-0.729705	-0.157764	0.468630	-0.627919	-0.276869	0.272584	-0.754940	-0.293479	0.236394	-0.748109	-0.236535	0.218887	-0.731096	-0.226143	0.260917	-0.740441	-0.302510	0.133131	-0.748104	-0.300357	0.146186	-0.669089	-0.365977	0.128233	-0.715395	-0.221335	0.040718	-0.742482	-0.195273	0.046818	-0.660213	-0.172377	0.038300	-0.655077	
504	2.5200	-0.262128	1.474677	-0.537388	-0.207002	1.481991	-0.710197	-0.218058	1.472635	-0.355868	-0.138967	1.418054	-0.527791	-0.142639	0.991148	-0.420944	-0.122269	0.987608	-0.638155	-0.197540	1.039458	-0.393884	-0.193440	1.033715	-0.674937	-0.288654	1.019800	-0.486535	-0.279570	1.017895	-0.588840	-0.287580	1.013637	-0.533194	-0.222415	0.789533	-0.349663	-0.209290	0.731653	-0.342945	-0.145758	0.743123	-0.351464	-0.152082	0.803755	-0.360869	-0.190955	0.470771	-0.360781	-0.189236	0.463985	-0.460983	-0.310241	0.285786	-0.366645	-0.327705	0.248810	-0.378852	-0.269853	0.229820	-0.381859	-0.256049	0.266754	-0.373414	-0.344325	0.128125	-0.392551	-0.313663	0.142338	-0.467579	-0.387608	0.137069	-0.442648	-0.261063	0.039635	-0.361834	-0.212149	0.044668	-0.429333	-0.190732	0.037007	-0.424987	-0.222333	0.778568	-0.719627	-0.203688	0.720525	-0.729965	-0.140507	0.735241	-0.731066	-0.150099	0.794461	-0.721380	-0.152729	0.479719	-0.729505	-0.160080	0.473337	-0.627633	-0.276796	0.276159	-0.754963	-0.292837	0.239654	-0.748315	-0.235565	0.222849	-0.731764	-0.225825	0.265085	-0.740834	-0.300595	0.135999	-0.748677	-0.298058	0.148728	-0.669883	-0.363683	0.131436	-0.715624	-0.220639	0.041027	-0.742545	-0.194923	0.046982	-0.660532	-0.172277	0.038453	-0.655342	
505	2.5250	-0.262703	1.479370	-0.537113	-0.207563	1.487433	-0.709726	-0.218625	1.477969	-0.356043	-0.139497	1.423612	-0.527657	-0.141644	0.995975	-0.420974	-0.121381	0.992579	-0.637947	-0.196396	1.045063	-0.393969	-0.192156	1.039188	-0.674652	-0.287444	1.025315	-0.486504	-0.278324	1.023408	-0.588895	-0.286406	1.019177	-0.532582	-0.222549	0.794418	-0.349748	-0.209862	0.736438	-0.343001	-0.146245	0.747413	-0.351576	-0.152115	0.808092	-0.361009	-0.193407	0.475698	-0.361010	-0.190961	0.468534	-0.461320	-0.310347	0.289630	-0.366678	-0.327242	0.252326	-0.378719	-0.269187	0.233980	-0.381027	-0.255894	0.271143	-0.372813	-0.342589	0.130932	-0.391953	-0.311256	0.145074	-0.466538	-0.385358	0.140238	-0.442310	-0.260463	0.040159	-0.361769	-0.211963	0.044671	-0.429247	-0.190797	0.037072	-0.424951	-0.222342	0.784025	-0.719627	-0.204143	0.725840	-0.729928	-0.140804	0.740037	-0.730826	-0.149969	0.799331	-0.721099	-0.155096	0.484474	-0.729249	-0.162381	0.478072	-0.627278	-0.276644	0.279760	-0.754921	-0.292100	0.242955	-0.748478	-0.234517	0.226860	-0.732387	-0.225436	0.269293	-0.741170	-0.298539	0.138867	-0.749180	-0.295579	0.151271	-0.670609	-0.361251	0.134696	-0.715716	-0.219941	0.041353	-0.742549	-0.194513	0.047142	-0.660791	-0.172115	0.038597	-0.655592	
506	2.5300	-0.263293	1.483980	-0.536804	-0.208165	1.492839	-0.709218	-0.219238	1.483181	-0.356216	-0.140032	1.429085	-0.527519	-0.140652	1.000706	-0.421001	-0.120503	0.997473	-0.637720	-0.195200	1.050679	-0.394044	-0.190868	1.044654	-0.674356	-0.286236	1.030827	-0.486446	-0.277084	1.028929	-0.588919	-0.285214	1.024720	-0.532071	-0.222709	0.799229	-0.349821	-0.210456	0.741158	-0.343040	-0.146749	0.751650	-0.351647	-0.152178	0.812370	-0.361106	-0.195839	0.480577	-0.361264	-0.192565	0.473047	-0.461686	-0.310372	0.293483	-0.366710	-0.326744	0.255862	-0.378574	-0.268422	0.238161	-0.380170	-0.255666	0.275543	-0.372212	-0.340739	0.133733	-0.391377	-0.308667	0.147807	-0.465494	-0.382953	0.143440	-0.442016	-0.259866	0.040684	-0.361666	-0.211730	0.044740	-0.429248	-0.190833	0.037151	-0.424895	-0.222320	0.789457	-0.719611	-0.204564	0.731138	-0.729881	-0.141055	0.744814	-0.730562	-0.149807	0.804178	-0.720791	-0.157417	0.489219	-0.728937	-0.164652	0.482787	-0.626854	-0.276400	0.283365	-0.754833	-0.291264	0.246252	-0.748602	-0.233378	0.230884	-0.732955	-0.224969	0.273510	-0.741445	-0.296347	0.141722	-0.749627	-0.292952	0.153807	-0.671262	-0.358684	0.137996	-0.715697	-0.219239	0.041709	-0.742515	-0.194069	0.047387	-0.660987	-0.171877	0.038719	-0.655851	
507	2.5350	-0.263866	1.488498	-0.536495	-0.208801	1.498164	-0.708677	-0.219880	1.488232	-0.356378	-0.140558	1.434433	-0.527373	-0.139672	1.005315	-0.421019	-0.119643	1.002265	-0.637468	-0.193953	1.056252	-0.394106	-0.189584	1.050088	-0.674048	-0.285045	1.036282	-0.486353	-0.275866	1.034415	-0.588903	-0.284020	1.030226	-0.531670	-0.222899	0.803927	-0.349882	-0.211069	0.745778	-0.343066	-0.147264	0.755805	-0.351681	-0.152273	0.816566	-0.361162	-0.198211	0.485378	-0.361553	-0.194050	0.477490	-0.462074	-0.310318	0.297314	-0.366758	-0.326166	0.259365	-0.378457	-0.267575	0.242321	-0.379316	-0.255383	0.279917	-0.371653	-0.338782	0.136524	-0.390815	-0.305908	0.150523	-0.464451	-0.380368	0.146656	-0.441789	-0.259230	0.041306	-0.361605	-0.211477	0.044881	-0.429348	-0.190813	0.037221	-0.424787	-0.222271	0.794826	-0.719577	-0.204952	0.736381	-0.729820	-0.141269	0.749535	-0.730270	-0.149619	0.808970	-0.720454	-0.159703	0.493908	-0.728571	-0.166887	0.487441	-0.626369	-0.276064	0.286927	-0.754698	-0.290328	0.249515	-0.748693	-0.232155	0.234892	-0.733457	-0.224420	0.277696	-0.741650	-0.294028	0.144556	-0.750028	-0.290187	0.156330	-0.671842	-0.356000	0.141317	-0.715581	-0.218516	0.042136	-0.742448	-0.193579	0.047714	-0.661106	-0.171531	0.038842	-0.656102	
508	2.5400	-0.264410	1.492909	-0.536189	-0.209457	1.503369	-0.708115	-0.220538	1.493087	-0.356519	-0.141077	1.439626	-0.527222	-0.138720	1.009781	-0.421021	-0.118803	1.006942	-0.637192	-0.192649	1.061717	-0.394144	-0.188319	1.055465	-0.673726	-0.283884	1.041627	-0.486222	-0.274686	1.039819	-0.588847	-0.282841	1.035633	-0.531360	-0.223113	0.808493	-0.349932	-0.211697	0.750266	-0.343084	-0.147804	0.759853	-0.351685	-0.152399	0.820645	-0.361175	-0.200501	0.490063	-0.361878	-0.195427	0.481837	-0.462489	-0.310191	0.301074	-0.366818	-0.325510	0.262792	-0.378383	-0.266673	0.246404	-0.378505	-0.255028	0.284225	-0.371114	-0.336691	0.139279	-0.390256	-0.303005	0.153210	-0.463412	-0.377654	0.149889	-0.441623	-0.258566	0.042051	-0.361596	-0.211142	0.045108	-0.429475	-0.190713	0.037318	-0.424576	-0.222204	0.800089	-0.719528	-0.205312	0.741525	-0.729748	-0.141472	0.754162	-0.729935	-0.149420	0.813677	-0.720093	-0.161942	0.498515	-0.728158	-0.169085	0.491988	-0.625831	-0.275638	0.290397	-0.754505	-0.289281	0.252725	-0.748759	-0.230860	0.238857	-0.733879	-0.223799	0.281820	-0.741777	-0.291597	0.147360	-0.750381	-0.287322	0.158840	-0.672345	-0.353218	0.144643	-0.715408	-0.217767	0.042665	-0.742351	-0.193042	0.048104	-0.661179	-0.171094	0.038958	-0.656351	
509	2.5450	-0.264918	1.497185	-0.535886	-0.210091	1.508418	-0.707533	-0.221196	1.497720	-0.356624	-0.141576	1.444637	-0.527065	-0.137809	1.014089	-0.421002	-0.117992	1.011481	-0.636893	-0.191305	1.067013	-0.394144	-0.187082	1.060747	-0.673387	-0.282768	1.046819	-0.486051	-0.273557	1.045099	-0.588746	-0.281664	1.040913	-0.531317	-0.223351	0.812901	-0.349976	-0.212326	0.754598	-0.343103	-0.148353	0.763760	-0.351660	-0.152544	0.824585	-0.361148	-0.202685	0.494606	-0.362236	-0.196749	0.486046	-0.462915	-0.310000	0.304695	-0.366897	-0.324797	0.266101	-0.378350	-0.265736	0.250392	-0.377770	-0.254609	0.288418	-0.370605	-0.334507	0.142021	-0.389696	-0.300004	0.155865	-0.462391	-0.374843	0.153099	-0.441472	-0.257817	0.042933	-0.361540	-0.210737	0.045368	-0.429596	-0.190540	0.037449	-0.424251	-0.222130	0.805213	-0.719459	-0.205653	0.746532	-0.729661	-0.141677	0.758655	-0.729561	-0.149217	0.818248	-0.719711	-0.164115	0.503009	-0.727704	-0.171244	0.496399	-0.625248	-0.275126	0.293748	-0.754280	-0.288150	0.255852	-0.748808	-0.229505	0.242739	-0.734210	-0.223116	0.285845	-0.741823	-0.289088	0.150113	-0.750687	-0.284404	0.161326	-0.672776	-0.350370	0.147941	-0.715208	-0.216935	0.043315	-0.742216	-0.192449	0.048565	-0.661191	-0.170577	0.039065	-0.656643	
